# xmcd
#
# Track frame offsets:
#	150
#	16637
#	33674
#	47709
#	60346
#	80696
#	96040
#	109863
#	129233
#	146857
#	161910
#	179032
#	192710
#	207954
#	228118
#	243309
#	260434
#	279796
#	296912
#	311914
#	323725
#	335866
#
# Disc length: 4728 seconds
#
# Revision: 2
# Processed by: cddbd v1.5.1PL2 Copyright (c) Steve Scherf et al.
# Submitted via: audiograbber 1.82.02
#
DISCID=4c127616
DTITLE=Div Artist - Country Jukeboks
DYEAR=1900
DGENRE=
TTITLE0=MORRIS ft. OTTAR BIG HAND JOHANSEN - BONDE IFRA BYGDA
TTITLE1=TOBY KEITH - AS GOOD AS I ONCE WAS
TTITLE2=SOGGY BOTTOM BOYS ft. DAN TYMINSKY - I AM A MAN OF CONSTANT SORROW
TTITLE3=DWIGHT YOAKHAM and BUCK OWENS - STREETS OF BAKERSFIELD
TTITLE4=LEE ANN WOMACK - I HATE MYSELF IN THE MORNING
TTITLE5=ROGER MCANDRE - STOP SHOWING UP
TTITLE6=JULIE ROBERTS - WAKE UP OLDER
TTITLE7=ORBO - DANCE WITH YOU
TTITLE8=ALAN JACKSON - CHATTAHOOCHEE
TTITLE9=SOMEBODYS DARLING - THATS WHY I WEAR BLACK
TTITLE10=MAVERIKS - WHAT A CRYING SHAME
TTITLE11=HIGHWAYMEN - HIGHWAYMAN
TTITLE12=BILLY RAY CYRUS - ACHY BREAKY HEART
TTITLE13=STEVE EARL - COPPERHEAD ROAD
TTITLE14=G. THOMAS - WE ALL GET LUCKY SOMETIMES
TTITLE15=LORETTA LYNN and JACK WHITE - PORTLAND OREGON
TTITLE16=CLAUDIA, BIG HAND, CASINO - WILL THE CIRCLE BE BROKEN
TTITLE17=JOHNNY CASH and KRIS KRISTOFFERSON - SUNDAY MORNING COMING DOWN
TTITLE18=BIG and RICH - SAVE A HORSE (RIDE A COWBOY)
TTITLE19=ROY MARTIN - I'M GONNA BE THERE
TTITLE20=CASINO STEEL - THERE'S A TEAR IN MY BEER
TTITLE21=SUGARLAND - BABY GIRL
EXTD=
EXTT0=
EXTT1=
EXTT2=
EXTT3=
EXTT4=
EXTT5=
EXTT6=
EXTT7=
EXTT8=
EXTT9=
EXTT10=
EXTT11=
EXTT12=
EXTT13=
EXTT14=
EXTT15=
EXTT16=
EXTT17=
EXTT18=
EXTT19=
EXTT20=
EXTT21=
PLAYORDER=
